<svg width="32" height="57" viewBox="0 0 32 57" fill="none" xmlns="http://www.w3.org/2000/svg">
<path d="M23.0936 0C19.2265 0 15.5176 1.52192 12.783 4.2309C10.0486 6.93991 8.51232 10.6141 8.51232 14.4452V22.4877H0.709359C0.317604 22.4877 0 22.8022 0 23.1904V33.8096C0 34.1978 0.317604 34.5123 0.709359 34.5123H8.51232V56.2973C8.51232 56.6855 8.82992 57 9.22168 57H19.9409C20.3328 57 20.6502 56.6855 20.6502 56.2973V34.5123H28.5222C28.8479 34.5123 29.1317 34.2928 29.2105 33.9801L31.8903 23.3609C32.0022 22.9174 31.6636 22.4877 31.2021 22.4877H20.6502V14.4452C20.6502 13.8032 20.9078 13.1876 21.3659 12.7336C21.824 12.2797 22.4457 12.0247 23.0936 12.0247H31.2906C31.6825 12.0247 32 11.71 32 11.3219V0.702739C32 0.31464 31.6825 0 31.2906 0H23.0936Z" fill="white"/>
</svg>
