<svg width="64" height="64" viewBox="0 0 64 64" fill="none" xmlns="http://www.w3.org/2000/svg">
<path d="M49.1653 55.832H14.8346C13.0665 55.832 11.3708 55.1296 10.1206 53.8793C8.87035 52.6291 8.16797 50.9334 8.16797 49.1653V14.8346C8.16797 13.0665 8.87035 11.3708 10.1206 10.1206C11.3708 8.87035 13.0665 8.16797 14.8346 8.16797H49.1653C50.9334 8.16797 52.6291 8.87035 53.8793 10.1206C55.1296 11.3708 55.832 13.0665 55.832 14.8346V49.1653C55.832 50.9334 55.1296 52.6291 53.8793 53.8793C52.6291 55.1296 50.9334 55.832 49.1653 55.832ZM14.8346 10.8346C13.7738 10.8346 12.7564 11.2561 12.0062 12.0062C11.2561 12.7564 10.8346 13.7738 10.8346 14.8346V49.1653C10.8346 50.2262 11.2561 51.2436 12.0062 51.9937C12.7564 52.7439 13.7738 53.1653 14.8346 53.1653H49.1653C50.2262 53.1653 51.2436 52.7439 51.9937 51.9937C52.7439 51.2436 53.1653 50.2262 53.1653 49.1653V14.8346C53.1653 13.7738 52.7439 12.7564 51.9937 12.0062C51.2436 11.2561 50.2262 10.8346 49.1653 10.8346H14.8346Z" fill="white"/>
<path d="M32 44.2508C29.577 44.2482 27.2091 43.5272 25.1958 42.1791C23.1824 40.8309 21.614 38.9162 20.6887 36.6768C19.7634 34.4374 19.5228 31.9739 19.9973 29.5978C20.4718 27.2217 21.6401 25.0396 23.3546 23.3274C25.069 21.6152 27.2527 20.4497 29.6294 19.9783C32.0061 19.5069 34.4692 19.7507 36.7074 20.6789C38.9456 21.6071 40.8583 23.1781 42.2038 25.1932C43.5493 27.2083 44.2672 29.5771 44.2667 32.0001C44.2624 35.2507 42.9682 38.3667 40.6682 40.6636C38.3682 42.9606 35.2506 44.2508 32 44.2508ZM32 22.4001C30.1051 22.4028 28.2534 22.9669 26.679 24.0213C25.1045 25.0757 23.8778 26.5731 23.1539 28.3243C22.4299 30.0755 22.2412 32.0019 22.6115 33.8603C22.9819 35.7187 23.8946 37.4257 25.2346 38.7656C26.5745 40.1055 28.2814 41.0183 30.1398 41.3886C31.9982 41.7589 33.9247 41.5702 35.6759 40.8463C37.427 40.1223 38.9244 38.8957 39.9788 37.3212C41.0332 35.7467 41.5974 33.8951 41.6 32.0001C41.6 29.4541 40.5886 27.0123 38.7882 25.2119C36.9879 23.4116 34.5461 22.4001 32 22.4001Z" fill="white"/>
<path d="M45.8667 21.08C47.4499 21.08 48.7333 19.7966 48.7333 18.2133C48.7333 16.6301 47.4499 15.3467 45.8667 15.3467C44.2835 15.3467 43 16.6301 43 18.2133C43 19.7966 44.2835 21.08 45.8667 21.08Z" fill="white"/>
</svg>
