<svg width="73" height="73" viewBox="0 0 73 73" fill="none" xmlns="http://www.w3.org/2000/svg">
<path fill-rule="evenodd" clip-rule="evenodd" d="M31.5905 25.4188C30.8858 24.996 30.008 24.9849 29.2928 25.3899C28.5776 25.7948 28.1355 26.5531 28.1355 27.375V45.625C28.1355 46.4469 28.5776 47.2051 29.2928 47.61C30.008 48.0151 30.8858 48.0039 31.5905 47.5811L46.7989 38.4561C47.486 38.044 47.9063 37.3012 47.9063 36.5C47.9063 35.6988 47.486 34.9561 46.7989 34.5439L31.5905 25.4188ZM41.1912 36.5L32.698 41.596V31.404L41.1912 36.5Z" fill="white"/>
<path fill-rule="evenodd" clip-rule="evenodd" d="M51.8018 14.1172C41.6162 13.3203 31.384 13.3203 21.1986 14.1172L14.3832 14.6504C10.2387 14.9746 6.84819 18.0808 6.16308 22.1811C4.5791 31.6613 4.5791 41.3386 6.16308 50.8189C6.84819 54.9191 10.2387 58.0252 14.3832 58.3495L21.1986 58.8827C31.384 59.6796 41.6162 59.6796 51.8018 58.8827L58.6173 58.3495C62.7615 58.0252 66.1521 54.9191 66.8374 50.8189C68.4212 41.3386 68.4212 31.6613 66.8374 22.1811C66.1521 18.0808 62.7615 14.9746 58.6173 14.6504L51.8018 14.1172ZM21.5545 18.6658C31.5032 17.8874 41.4972 17.8874 51.4459 18.6658L58.2614 19.199C60.3163 19.3598 61.9975 20.8999 62.3372 22.933C63.838 31.9152 63.838 41.0846 62.3372 50.067C61.9975 52.1 60.3163 53.64 58.2614 53.8009L51.4459 54.3342C41.4972 55.1125 31.5029 55.1125 21.5545 54.3342L14.739 53.8009C12.6841 53.64 11.0029 52.1 10.6632 50.067C9.16241 41.0846 9.16241 31.9152 10.6632 22.933C11.0029 20.8999 12.6841 19.3598 14.739 19.199L21.5545 18.6658Z" fill="white"/>
</svg>
